<?xml version="1.0" encoding="utf-8"?>
<svg viewBox="0 0 512 512" xmlns="http://www.w3.org/2000/svg">
  <g id="layer1" transform="matrix(0.9999999999999999, 0, 0, 0.9999999999999999, -7.105427357601002e-15, 0)">
    <rect style="display:inline;fill:#212121;fill-opacity:1;stroke-width:17.3161" id="rect3" width="246.53729" height="376.61768" x="0.20072117" y="9.7289829" ry="14.076801"/>
    <rect style="display:inline;fill:#212121;fill-opacity:1;stroke-width:27.1985" id="rect3-2" width="511.79929" height="447.57294" x="0.066848755" y="44.771805"/>
    <rect style="fill:#ffffff;fill-opacity:1;stroke:none;stroke-width:31.2086" id="rect4" width="438.97021" height="62.699955" x="36.615238" y="56.787506" ry="31.349977"/>
    <rect style="display:inline;fill:#333333;stroke:none;stroke-width:26.205" id="rect2" width="511.79929" height="415.48013" x="0.20072117" y="76.864609"/>
  </g>
  <g id="layer2" style="transform-origin: 255.965px 292.635px;" transform="matrix(-0.971502125263, 0.237033978105, 0.237028002739, 0.971502125263, -0.000092754794, 0.000022943789)">
    <path style="fill:#000000;stroke-width:14.4601" d="M 64.601891,461.08606 C 56.62517,456.9476 53.14292,447.79472 56.929627,440.92002 c 1.244867,-2.26006 27.613297,-26.95806 58.596513,-54.88451 36.61126,-32.99921 56.00431,-51.30934 55.39388,-52.30057 -0.5166,-0.83888 -15.66026,-24.47416 -33.65259,-52.52284 -17.99231,-28.04869 -33.19075,-51.77489 -33.77429,-52.72489 -1.57451,-2.56337 -0.54351,-11.16907 1.73863,-14.51132 1.09676,-1.60625 3.61901,-3.65759 5.60501,-4.55851 1.98595,-0.90092 77.62529,-15.08142 168.08738,-31.51227 l 164.47653,-29.87427 5.32802,3.08016 c 4.38309,2.53389 5.60254,4.12417 6.87582,8.96664 1.37939,5.24603 1.297,6.34176 -0.75708,10.07095 -1.26768,2.30145 -27.65039,27.04516 -58.6282,54.98602 -36.07932,32.5422 -55.99049,51.34258 -55.3973,52.30678 0.50933,0.82788 15.647,24.45417 33.63933,52.50284 17.99233,28.0487 33.19076,51.7749 33.77431,52.7249 1.57453,2.56337 0.54351,11.16907 -1.73863,14.51132 -1.09676,1.60626 -3.68654,3.68824 -5.75504,4.62659 -3.43355,1.55755 -70.83437,14.04517 -257.93469,47.78845 -37.77534,6.81276 -70.141984,12.53954 -71.925935,12.72621 -1.783931,0.18664 -4.609662,-0.36943 -6.279404,-1.23564 z" id="path2-3"/>
    <path style="fill:#ffffff;stroke-width:14.4601" d="m 65.094655,437.02945 c -7.988317,-4.11607 -11.4962,-13.25914 -7.728798,-20.14446 1.238538,-2.26351 27.537598,-27.03538 58.442373,-55.04862 36.51857,-33.10174 55.8602,-51.46618 55.24698,-52.45569 -0.51894,-0.83743 -15.72883,-24.43014 -33.79974,-52.42826 -18.07091,-27.99814 -33.33581,-51.6816 -33.92202,-52.62996 -1.5817,-2.55896 -0.57483,-11.16751 1.69794,-14.51614 1.09225,-1.60935 3.60872,-3.66773 5.59219,-4.57422 1.98343,-0.90648 77.5827,-15.29905 167.99835,-31.98351 l 164.39209,-30.33541 5.33666,3.06521 c 4.39015,2.52157 5.61407,4.10842 6.90093,8.94733 1.39408,5.24214 1.31478,6.3381 -0.72885,10.07304 -1.26121,2.30499 -27.57442,27.12257 -58.47375,55.15019 -35.98792,32.64325 -55.84629,51.4994 -55.25041,52.46192 0.51165,0.82646 15.71555,24.41021 33.78646,52.40831 18.07091,27.99814 33.33582,51.68162 33.92202,52.62998 1.58173,2.55895 0.57483,11.16749 -1.69794,14.51615 -1.09224,1.60932 -3.67616,3.69855 -5.74204,4.6427 -3.42916,1.56717 -70.79469,14.24375 -257.79965,48.5116 -37.75607,6.91866 -70.106537,12.7362 -71.889967,12.92787 -1.78339,0.19166 -4.610663,-0.3565 -6.282828,-1.21803 z" id="path2"/>
  </g>
</svg>